<?xml version="1.0" encoding="utf-8"?>
<!-- Generator: Adobe Illustrator 21.0.2, SVG Export Plug-In . SVG Version: 6.00 Build 0)  -->
<!DOCTYPE svg PUBLIC "-//W3C//DTD SVG 1.1//EN" "http://www.w3.org/Graphics/SVG/1.1/DTD/svg11.dtd">
<svg version="1.1" xmlns="http://www.w3.org/2000/svg" xmlns:xlink="http://www.w3.org/1999/xlink" x="0px" y="0px"
	 viewBox="0 0 16 16" style="enable-background:new 0 0 16 16;" xml:space="preserve">
<style type="text/css">
	.st0{clip-path:url(#SVGID_2_);}
	.st1{clip-path:url(#SVGID_4_);}
	.st2{clip-path:url(#SVGID_6_);}
	.st3{clip-path:url(#SVGID_8_);}
	.st4{clip-path:url(#SVGID_10_);}
	.st5{clip-path:url(#SVGID_12_);}
	.st6{display:none;}
	.st7{display:inline;}
</style>
<g id="Layer_1">
	<g>
		<defs>
			<path id="SVGID_1_" d="M12.3,9.1H8c-0.4,0-0.7,0.3-0.7,0.7v3.5C7.3,13.7,7.6,14,8,14h4.4c0.4,0,0.7-0.3,0.7-0.7V9.7
				C13,9.4,12.7,9.1,12.3,9.1z M12.4,13.3c0,0.1,0,0.1-0.1,0.1H8c-0.1,0-0.1,0-0.1-0.1V9.7c0-0.1,0-0.1,0.1-0.1h4.4
				c0.1,0,0.1,0,0.1,0.1V13.3z"/>
		</defs>
		<clipPath id="SVGID_2_">
			<use xlink:href="#SVGID_1_"  style="overflow:visible;"/>
		</clipPath>
		<rect x="6.3" y="8.1" class="st0" width="7.8" height="6.9"/>
	</g>
	<g>
		<defs>
			<path id="SVGID_3_" d="M13.2,5.2H8c-0.4,0-0.7,0.3-0.7,0.7v1.7C7.3,8,7.6,8.3,8,8.3h5.2c0.4,0,0.7-0.3,0.7-0.7V5.9
				C13.9,5.5,13.6,5.2,13.2,5.2z M13.3,7.6c0,0.1,0,0.1-0.1,0.1H8c-0.1,0-0.1,0-0.1-0.1V5.9c0-0.1,0-0.1,0.1-0.1h5.2
				c0.1,0,0.1,0,0.1,0.1V7.6z"/>
		</defs>
		<clipPath id="SVGID_4_">
			<use xlink:href="#SVGID_3_"  style="overflow:visible;"/>
		</clipPath>
		<rect x="6.3" y="4.2" class="st1" width="8.6" height="5.1"/>
	</g>
	<g>
		<defs>
			<path id="SVGID_5_" d="M5.9,9.1H3.7C3.3,9.1,3,9.4,3,9.7v3.5C3,13.7,3.3,14,3.7,14h2.2c0.4,0,0.7-0.3,0.7-0.7V9.7
				C6.6,9.4,6.3,9.1,5.9,9.1z M6,13.3c0,0.1,0,0.1-0.1,0.1H3.7c-0.1,0-0.1,0-0.1-0.1V9.7c0-0.1,0-0.1,0.1-0.1h2.2C6,9.6,6,9.7,6,9.7
				V13.3z"/>
		</defs>
		<clipPath id="SVGID_6_">
			<use xlink:href="#SVGID_5_"  style="overflow:visible;"/>
		</clipPath>
		<rect x="2" y="8.1" class="st2" width="5.5" height="6.9"/>
	</g>
	<g>
		<defs>
			<path id="SVGID_7_" d="M6.6,7.6V5.9c0-0.4-0.3-0.7-0.7-0.7h-3c-0.4,0-0.7,0.3-0.7,0.7v1.7c0,0.4,0.3,0.7,0.7,0.7h3
				C6.2,8.3,6.6,8,6.6,7.6 M2.8,7.6V5.9c0-0.1,0-0.1,0.1-0.1h3c0.1,0,0.1,0,0.1,0.1v1.7c0,0.1,0,0.1-0.1,0.1h-3
				C2.8,7.7,2.8,7.7,2.8,7.6"/>
		</defs>
		<clipPath id="SVGID_8_">
			<use xlink:href="#SVGID_7_"  style="overflow:visible;"/>
		</clipPath>
		<rect x="1.2" y="4.2" class="st3" width="6.4" height="5.1"/>
	</g>
	<g>
		<defs>
			<path id="SVGID_9_" d="M4.8,3.8C5.2,4,6,4.3,7.3,4.4l0.6,0L7.6,3.9C7,3.1,6.1,2,5,2C4.4,2,3.9,2.3,3.9,2.8C3.9,2.9,4,3.4,4.8,3.8
				 M5,2.6c0.7,0,1.3,0.6,1.7,1.1C5.9,3.6,5.4,3.4,5.1,3.3C4.6,3,4.5,2.8,4.5,2.8C4.5,2.7,4.7,2.6,5,2.6"/>
		</defs>
		<clipPath id="SVGID_10_">
			<use xlink:href="#SVGID_9_"  style="overflow:visible;"/>
		</clipPath>
		<rect x="2.9" y="1" class="st4" width="5.9" height="4.4"/>
	</g>
	<g>
		<defs>
			<path id="SVGID_11_" d="M11.8,3.1c0.2-0.3,0.1-0.6,0-0.7c-0.2-0.3-0.5-0.4-1-0.4c-1.1,0-2,1-2.6,1.9L8,4.4l0.6,0
				C10.2,4.3,11.4,3.8,11.8,3.1 M10.9,2.6c0.3,0,0.4,0.1,0.5,0.1c0,0,0,0,0,0.1c-0.2,0.3-0.9,0.7-2.2,0.9C9.6,3.2,10.2,2.6,10.9,2.6
				"/>
		</defs>
		<clipPath id="SVGID_12_">
			<use xlink:href="#SVGID_11_"  style="overflow:visible;"/>
		</clipPath>
		<rect x="7" y="1" class="st5" width="5.9" height="4.4"/>
	</g>
</g>
<g id="Layer_2" class="st6">
	<g transform="translate(0.000000,16.000000) scale(0.001042,-0.001042)" class="st7">
		<path d="M7.7,1.7c0,0-0.1,0-0.2,0C6,1.9,4.8,3,4.3,4.4C4.2,4.6,4.2,4.9,4.1,5.2c0,0.1,0,0.6,0,0.7l0,0.1L3.5,6C2.9,6,2.8,6,2.7,6
			C2.5,6.1,2.3,6.3,2.2,6.5c0,0.1,0,0.2,0,3.5s0,3.4,0,3.5c0.1,0.3,0.3,0.5,0.6,0.6c0.1,0,0.3,0,5.2,0s5.2,0,5.2,0
			c0.3-0.1,0.5-0.3,0.6-0.6c0-0.1,0-0.2,0-2.9V7.8l0-0.1c-0.1-0.2-0.2-0.4-0.4-0.5c-0.2-0.1-0.1-0.1-1-0.1c-0.6,0-0.8,0-0.8,0
			c0.1-0.2,0.1-0.3,0.1-0.4c0-0.1,0-0.1,0.1-0.2l0,0h0.7h0.7l0,0c0,0,0-0.1-0.1-0.1c0-0.1-0.1-0.1-0.1-0.2c-0.1-0.1-0.1-0.1-0.2-0.1
			C12.7,6,12.6,6,12.2,6l-0.4,0l0-0.1c0-0.1,0-0.6,0-0.7c-0.1-0.5-0.2-0.9-0.4-1.3c-0.5-1-1.4-1.7-2.5-2c-0.4-0.1-0.6-0.1-1-0.1
			C7.9,1.7,7.7,1.7,7.7,1.7z M8.3,2.3c1.4,0.1,2.6,1.2,2.9,2.5c0.1,0.2,0.1,0.4,0.1,0.7c0,0.5-0.1,1-0.3,1.4l-0.1,0.1h-0.7H9.5
			l0-0.1c0-0.1,0.1-0.2,0.1-0.3c0-0.1,0-0.3,0-0.4c0,0-0.1,0-0.3,0H9.1l0,0.1C9,6.7,8.9,6.9,8.8,7L8.7,7.1L8,7.1l-0.7,0L7.2,7
			C7,6.8,6.9,6.6,6.9,6.4l0-0.1h0.7h0.7V6.1V5.8H7.5H6.8V5.6V5.4l0.7,0l0.7,0l0-0.3l0-0.3H7.5H6.9v0c0,0,0-0.1,0-0.1
			C7,4.2,7.4,3.8,7.8,3.8c0.1,0,0.3,0,0.4,0C8.7,3.9,9,4.3,9,4.7l0,0.1h0.3c0.2,0,0.3,0,0.3,0c0,0,0-0.1,0-0.1c0-0.4-0.2-0.7-0.5-1
			C8.9,3.4,8.4,3.2,8,3.2c-0.5,0-0.9,0.2-1.2,0.5C6.5,3.9,6.3,4.3,6.3,4.7l0,0.1H6.1H5.9v0.3v0.3h0.2h0.2v0.2v0.2H6.1H5.9v0.3v0.3
			h0.2h0.2l0,0.1c0,0.2,0.1,0.4,0.2,0.6c0,0,0,0.1,0,0.1c0,0-0.3,0-0.7,0H5.1L5,7C4.8,6.5,4.7,6.1,4.7,5.6c0-0.2,0-0.4,0-0.5
			c0.2-1.2,1-2.2,2.2-2.6c0.2-0.1,0.5-0.2,0.8-0.2C7.8,2.3,8.2,2.3,8.3,2.3z M4.3,6.7C4.3,6.9,4.4,7,4.4,7l0,0.1l-0.8,0
			c-0.5,0-0.8,0-0.8,0c0,0-0.1-0.1-0.1-0.1c0-0.1,0-0.3,0-0.3c0-0.1,0.1-0.1,0.1-0.1c0,0,0.3,0,0.7,0l0.6,0L4.3,6.7z M8,7.7
			c5.1,0,5.2,0,5.2,0c0,0,0.1,0,0.1,0.1l0,0l0,0.6l0,0.6l-1.4,0c-1.3,0-1.4,0-1.5,0C10.2,9.1,10,9.3,10,9.5c0,0.1,0,0.2,0,1.1
			c0,1.2,0,1.1,0.1,1.2c0,0.1,0.2,0.2,0.2,0.2c0.1,0.1,0.1,0.1,1.6,0.1h1.4v0.6c0,0.6,0,0.6,0,0.6c0,0.1-0.1,0.1-0.1,0.1
			c-0.1,0-10.1,0-10.2,0c-0.1,0-0.1-0.1-0.1-0.1c0,0,0-0.1,0-2.9V7.7l0,0C2.8,7.7,5.1,7.7,8,7.7z M13.3,10.6v1h-1.4h-1.4v-1v-1h1.4
			h1.4V10.6z"/>
		<path d="M11.8,10.1c-0.2,0.1-0.4,0.3-0.3,0.5c0.1,0.3,0.4,0.5,0.6,0.3c0.2-0.1,0.3-0.3,0.2-0.4C12.3,10.3,12,10.1,11.8,10.1z"/>
	</g>
</g>
</svg>
